# xmcd
#
# Track frame offsets:
# 150
# 14331
# 23575
# 36824
# 49924
# 67338
# 82902
# 103331
# 114162
# 129726
#
# Disc length: 1974 seconds
#
#
# Revision: 0
# Processed by: cddbd v1.5PL3 Copyright (c) Steve Scherf et al.
# Submitted via: FreeRIP 2.51 
#
DISCID=8107b40a
DTITLE=Leann Rimes - God Bless America
DYEAR=1900
DGENRE=
TTITLE0=God Bless America
TTITLE1=National Anthem
TTITLE2=The Lord's Prayer
TTITLE3=The Sands Of Time
TTITLE4=Why Can't We
TTITLE5=Put A Little Holoday In Your Heart
TTITLE6=Middle Man
TTITLE7=I Believe
TTITLE8=Broken Wing
TTITLE9=Amazing Grace
EXTD=
EXTT0=
EXTT1=
EXTT2=
EXTT3=
EXTT4=
EXTT5=
EXTT6=
EXTT7=
EXTT8=
EXTT9=
PLAYORDER=
